<svg xmlns="http://www.w3.org/2000/svg" xmlns:xlink="http://www.w3.org/1999/xlink" width="1920" height="1930" viewBox="0 0 1920 1930">
  <defs>
    <clipPath id="clip-Artboard_1">
      <rect width="1920" height="1930"/>
    </clipPath>
  </defs>
  <g id="Artboard_1" data-name="Artboard – 1" clip-path="url(#clip-Artboard_1)">
    <rect width="1920" height="1930" fill="#fff"/>
    <g id="Rectangle_1" data-name="Rectangle 1" transform="translate(-32)" fill="#fff" stroke="#707070" stroke-width="1">
      <rect width="1920" height="131" stroke="none"/>
      <rect x="0.5" y="0.5" width="1919" height="130" fill="none"/>
    </g>
    <text id="nakov_libary" data-name="nakov libary" transform="translate(28 35)" fill="#707070" font-size="20" font-family="SegoeUI, Segoe UI"><tspan x="0" y="22">nakov libary</tspan></text>
    <text id="login_logout" data-name="login/logout" transform="translate(1777 49)" fill="#707070" font-size="20" font-family="SegoeUI, Segoe UI"><tspan x="0" y="22">login/logout</tspan></text>
    <text id="if_logged_in_user_name_when_clicked_show_user_dashboard" data-name="if logged in user name
when clicked show user dashboard" transform="translate(1528 49)" fill="#707070" font-size="20" font-family="SegoeUI, Segoe UI"><tspan x="0" y="22">if logged in user name</tspan><tspan x="0" y="49">when clicked show user </tspan><tspan x="0" y="76">dashboard</tspan></text>
    <text id="All_books_" data-name="All books
" transform="translate(315 38)" fill="#707070" font-size="20" font-family="SegoeUIBlack, Segoe UI"><tspan x="0" y="22">All books</tspan><tspan x="0" y="49"></tspan></text>
    <text id="if_admin_logged_in_show_admin_dashboard_" data-name="if admin logged in show admin 
dashboard
" transform="translate(1360)" fill="#707070" font-size="20" font-family="SegoeUI, Segoe UI"><tspan x="0" y="22">if admin </tspan><tspan x="0" y="49">logged in </tspan><tspan x="0" y="76">show admin </tspan><tspan x="0" y="103">dashboard</tspan><tspan x="0" y="130"></tspan></text>
    <text id="Home" transform="translate(172 35)" fill="#707070" font-size="20" font-family="SegoeUI, Segoe UI"><tspan x="0" y="22">Home</tspan></text>
    <g id="Rectangle_23" data-name="Rectangle 23" transform="translate(0 128)" fill="#fff" stroke="#707070" stroke-width="1">
      <rect width="398" height="1268" stroke="none"/>
      <rect x="0.5" y="0.5" width="397" height="1267" fill="none"/>
    </g>
    <g id="Rectangle_12" data-name="Rectangle 12" transform="translate(416 146)" fill="#fff" stroke="#707070" stroke-width="1">
      <rect width="382" height="577" stroke="none"/>
      <rect x="0.5" y="0.5" width="381" height="576" fill="none"/>
    </g>
    <g id="Rectangle_13" data-name="Rectangle 13" transform="translate(416 146)" fill="#fff" stroke="#707070" stroke-width="1">
      <rect width="390" height="646" stroke="none"/>
      <rect x="0.5" y="0.5" width="389" height="645" fill="none"/>
    </g>
    <g id="Rectangle_14" data-name="Rectangle 14" transform="translate(416 146)" fill="#fff" stroke="#707070" stroke-width="1">
      <rect width="382" height="278" stroke="none"/>
      <rect x="0.5" y="0.5" width="381" height="277" fill="none"/>
    </g>
    <text id="IMG" transform="translate(476 224)" fill="#707070" font-size="20" font-family="SegoeUI, Segoe UI"><tspan x="0" y="22">IMG</tspan></text>
    <text id="title" transform="translate(476 462)" fill="#707070" font-size="20" font-family="SegoeUI, Segoe UI"><tspan x="0" y="22">title</tspan></text>
    <text id="des" transform="translate(476 541)" fill="#707070" font-size="20" font-family="SegoeUI, Segoe UI"><tspan x="0" y="22">des</tspan></text>
    <text id="author" transform="translate(482 516)" fill="#707070" font-size="20" font-family="SegoeUI, Segoe UI"><tspan x="0" y="22">author</tspan></text>
    <text id="genre" transform="translate(476 587)" fill="#707070" font-size="20" font-family="SegoeUI, Segoe UI"><tspan x="0" y="22">genre</tspan></text>
    <text id="quantity" transform="translate(454 633)" fill="#707070" font-size="20" font-family="SegoeUI, Segoe UI"><tspan x="0" y="22">quantity</tspan></text>
    <g id="Rectangle_15" data-name="Rectangle 15" transform="translate(603 723)" fill="#fff" stroke="#707070" stroke-width="1">
      <rect width="190" height="60" stroke="none"/>
      <rect x="0.5" y="0.5" width="189" height="59" fill="none"/>
    </g>
    <text id="borrow" transform="translate(617 745)" fill="#707070" font-size="20" font-family="SegoeUI, Segoe UI"><tspan x="0" y="22">borrow</tspan></text>
    <g id="Rectangle_16" data-name="Rectangle 16" transform="translate(428 710)" fill="#fff" stroke="#707070" stroke-width="1">
      <rect width="133" height="70" stroke="none"/>
      <rect x="0.5" y="0.5" width="132" height="69" fill="none"/>
    </g>
    <text id="open_book_page" data-name="open book page" transform="translate(476 702)" fill="#707070" font-size="20" font-family="SegoeUI, Segoe UI"><tspan x="0" y="22">open </tspan><tspan x="0" y="49">book </tspan><tspan x="0" y="76">page</tspan></text>
    <g id="Rectangle_17" data-name="Rectangle 17" transform="translate(830 146)" fill="#fff" stroke="#707070" stroke-width="1">
      <rect width="382" height="577" stroke="none"/>
      <rect x="0.5" y="0.5" width="381" height="576" fill="none"/>
    </g>
    <g id="Rectangle_18" data-name="Rectangle 18" transform="translate(830 146)" fill="#fff" stroke="#707070" stroke-width="1">
      <rect width="390" height="646" stroke="none"/>
      <rect x="0.5" y="0.5" width="389" height="645" fill="none"/>
    </g>
    <g id="Rectangle_19" data-name="Rectangle 19" transform="translate(830 146)" fill="#fff" stroke="#707070" stroke-width="1">
      <rect width="382" height="278" stroke="none"/>
      <rect x="0.5" y="0.5" width="381" height="277" fill="none"/>
    </g>
    <text id="IMG-2" data-name="IMG" transform="translate(890 224)" fill="#707070" font-size="20" font-family="SegoeUI, Segoe UI"><tspan x="0" y="22">IMG</tspan></text>
    <text id="title-2" data-name="title" transform="translate(890 462)" fill="#707070" font-size="20" font-family="SegoeUI, Segoe UI"><tspan x="0" y="22">title</tspan></text>
    <text id="des-2" data-name="des" transform="translate(890 541)" fill="#707070" font-size="20" font-family="SegoeUI, Segoe UI"><tspan x="0" y="22">des</tspan></text>
    <text id="author-2" data-name="author" transform="translate(896 516)" fill="#707070" font-size="20" font-family="SegoeUI, Segoe UI"><tspan x="0" y="22">author</tspan></text>
    <text id="genre-2" data-name="genre" transform="translate(890 587)" fill="#707070" font-size="20" font-family="SegoeUI, Segoe UI"><tspan x="0" y="22">genre</tspan></text>
    <text id="quantity-2" data-name="quantity" transform="translate(868 633)" fill="#707070" font-size="20" font-family="SegoeUI, Segoe UI"><tspan x="0" y="22">quantity</tspan></text>
    <g id="Rectangle_20" data-name="Rectangle 20" transform="translate(1017 723)" fill="#fff" stroke="#707070" stroke-width="1">
      <rect width="190" height="60" stroke="none"/>
      <rect x="0.5" y="0.5" width="189" height="59" fill="none"/>
    </g>
    <text id="borrow-2" data-name="borrow" transform="translate(1031 745)" fill="#707070" font-size="20" font-family="SegoeUI, Segoe UI"><tspan x="0" y="22">borrow</tspan></text>
    <g id="Rectangle_21" data-name="Rectangle 21" transform="translate(842 710)" fill="#fff" stroke="#707070" stroke-width="1">
      <rect width="133" height="70" stroke="none"/>
      <rect x="0.5" y="0.5" width="132" height="69" fill="none"/>
    </g>
    <text id="open_book_page-2" data-name="open book page" transform="translate(890 702)" fill="#707070" font-size="20" font-family="SegoeUI, Segoe UI"><tspan x="0" y="22">open </tspan><tspan x="0" y="49">book </tspan><tspan x="0" y="76">page</tspan></text>
    <g id="Rectangle_24" data-name="Rectangle 24" transform="translate(1244 146)" fill="#fff" stroke="#707070" stroke-width="1">
      <rect width="382" height="577" stroke="none"/>
      <rect x="0.5" y="0.5" width="381" height="576" fill="none"/>
    </g>
    <g id="Rectangle_25" data-name="Rectangle 25" transform="translate(1244 146)" fill="#fff" stroke="#707070" stroke-width="1">
      <rect width="390" height="646" stroke="none"/>
      <rect x="0.5" y="0.5" width="389" height="645" fill="none"/>
    </g>
    <g id="Rectangle_26" data-name="Rectangle 26" transform="translate(1244 146)" fill="#fff" stroke="#707070" stroke-width="1">
      <rect width="382" height="278" stroke="none"/>
      <rect x="0.5" y="0.5" width="381" height="277" fill="none"/>
    </g>
    <text id="IMG-3" data-name="IMG" transform="translate(1304 224)" fill="#707070" font-size="20" font-family="SegoeUI, Segoe UI"><tspan x="0" y="22">IMG</tspan></text>
    <text id="title-3" data-name="title" transform="translate(1304 462)" fill="#707070" font-size="20" font-family="SegoeUI, Segoe UI"><tspan x="0" y="22">title</tspan></text>
    <text id="des-3" data-name="des" transform="translate(1304 541)" fill="#707070" font-size="20" font-family="SegoeUI, Segoe UI"><tspan x="0" y="22">des</tspan></text>
    <text id="author-3" data-name="author" transform="translate(1310 516)" fill="#707070" font-size="20" font-family="SegoeUI, Segoe UI"><tspan x="0" y="22">author</tspan></text>
    <text id="genre-3" data-name="genre" transform="translate(1304 587)" fill="#707070" font-size="20" font-family="SegoeUI, Segoe UI"><tspan x="0" y="22">genre</tspan></text>
    <text id="quantity-3" data-name="quantity" transform="translate(1282 633)" fill="#707070" font-size="20" font-family="SegoeUI, Segoe UI"><tspan x="0" y="22">quantity</tspan></text>
    <g id="Rectangle_27" data-name="Rectangle 27" transform="translate(1431 723)" fill="#fff" stroke="#707070" stroke-width="1">
      <rect width="190" height="60" stroke="none"/>
      <rect x="0.5" y="0.5" width="189" height="59" fill="none"/>
    </g>
    <text id="borrow-3" data-name="borrow" transform="translate(1445 745)" fill="#707070" font-size="20" font-family="SegoeUI, Segoe UI"><tspan x="0" y="22">borrow</tspan></text>
    <g id="Rectangle_28" data-name="Rectangle 28" transform="translate(1256 710)" fill="#fff" stroke="#707070" stroke-width="1">
      <rect width="133" height="70" stroke="none"/>
      <rect x="0.5" y="0.5" width="132" height="69" fill="none"/>
    </g>
    <text id="open_book_page-3" data-name="open book page" transform="translate(1304 702)" fill="#707070" font-size="20" font-family="SegoeUI, Segoe UI"><tspan x="0" y="22">open </tspan><tspan x="0" y="49">book </tspan><tspan x="0" y="76">page</tspan></text>
    <g id="Rectangle_29" data-name="Rectangle 29" transform="translate(416 844)" fill="#fff" stroke="#707070" stroke-width="1">
      <rect width="382" height="577" stroke="none"/>
      <rect x="0.5" y="0.5" width="381" height="576" fill="none"/>
    </g>
    <g id="Rectangle_30" data-name="Rectangle 30" transform="translate(416 844)" fill="#fff" stroke="#707070" stroke-width="1">
      <rect width="390" height="646" stroke="none"/>
      <rect x="0.5" y="0.5" width="389" height="645" fill="none"/>
    </g>
    <g id="Rectangle_31" data-name="Rectangle 31" transform="translate(416 844)" fill="#fff" stroke="#707070" stroke-width="1">
      <rect width="382" height="278" stroke="none"/>
      <rect x="0.5" y="0.5" width="381" height="277" fill="none"/>
    </g>
    <text id="IMG-4" data-name="IMG" transform="translate(476 922)" fill="#707070" font-size="20" font-family="SegoeUI, Segoe UI"><tspan x="0" y="22">IMG</tspan></text>
    <text id="title-4" data-name="title" transform="translate(476 1160)" fill="#707070" font-size="20" font-family="SegoeUI, Segoe UI"><tspan x="0" y="22">title</tspan></text>
    <text id="des-4" data-name="des" transform="translate(476 1239)" fill="#707070" font-size="20" font-family="SegoeUI, Segoe UI"><tspan x="0" y="22">des</tspan></text>
    <text id="author-4" data-name="author" transform="translate(482 1214)" fill="#707070" font-size="20" font-family="SegoeUI, Segoe UI"><tspan x="0" y="22">author</tspan></text>
    <text id="genre-4" data-name="genre" transform="translate(476 1285)" fill="#707070" font-size="20" font-family="SegoeUI, Segoe UI"><tspan x="0" y="22">genre</tspan></text>
    <text id="quantity-4" data-name="quantity" transform="translate(454 1331)" fill="#707070" font-size="20" font-family="SegoeUI, Segoe UI"><tspan x="0" y="22">quantity</tspan></text>
    <g id="Rectangle_33" data-name="Rectangle 33" transform="translate(428 1408)" fill="#fff" stroke="#707070" stroke-width="1">
      <rect width="133" height="70" stroke="none"/>
      <rect x="0.5" y="0.5" width="132" height="69" fill="none"/>
    </g>
    <text id="open_book_page-4" data-name="open book page" transform="translate(476 1400)" fill="#707070" font-size="20" font-family="SegoeUI, Segoe UI"><tspan x="0" y="22">open </tspan><tspan x="0" y="49">book </tspan><tspan x="0" y="76">page</tspan></text>
    <g id="Rectangle_34" data-name="Rectangle 34" transform="translate(830 844)" fill="#fff" stroke="#707070" stroke-width="1">
      <rect width="382" height="577" stroke="none"/>
      <rect x="0.5" y="0.5" width="381" height="576" fill="none"/>
    </g>
    <g id="Rectangle_35" data-name="Rectangle 35" transform="translate(830 844)" fill="#fff" stroke="#707070" stroke-width="1">
      <rect width="390" height="646" stroke="none"/>
      <rect x="0.5" y="0.5" width="389" height="645" fill="none"/>
    </g>
    <g id="Rectangle_36" data-name="Rectangle 36" transform="translate(830 844)" fill="#fff" stroke="#707070" stroke-width="1">
      <rect width="382" height="278" stroke="none"/>
      <rect x="0.5" y="0.5" width="381" height="277" fill="none"/>
    </g>
    <text id="IMG-5" data-name="IMG" transform="translate(890 922)" fill="#707070" font-size="20" font-family="SegoeUI, Segoe UI"><tspan x="0" y="22">IMG</tspan></text>
    <text id="title-5" data-name="title" transform="translate(890 1160)" fill="#707070" font-size="20" font-family="SegoeUI, Segoe UI"><tspan x="0" y="22">title</tspan></text>
    <text id="des-5" data-name="des" transform="translate(890 1239)" fill="#707070" font-size="20" font-family="SegoeUI, Segoe UI"><tspan x="0" y="22">des</tspan></text>
    <text id="author-5" data-name="author" transform="translate(896 1214)" fill="#707070" font-size="20" font-family="SegoeUI, Segoe UI"><tspan x="0" y="22">author</tspan></text>
    <text id="genre-5" data-name="genre" transform="translate(890 1285)" fill="#707070" font-size="20" font-family="SegoeUI, Segoe UI"><tspan x="0" y="22">genre</tspan></text>
    <text id="quantity-5" data-name="quantity" transform="translate(868 1331)" fill="#707070" font-size="20" font-family="SegoeUI, Segoe UI"><tspan x="0" y="22">quantity</tspan></text>
    <g id="Rectangle_38" data-name="Rectangle 38" transform="translate(842 1408)" fill="#fff" stroke="#707070" stroke-width="1">
      <rect width="133" height="70" stroke="none"/>
      <rect x="0.5" y="0.5" width="132" height="69" fill="none"/>
    </g>
    <text id="open_book_page-5" data-name="open book page" transform="translate(890 1400)" fill="#707070" font-size="20" font-family="SegoeUI, Segoe UI"><tspan x="0" y="22">open </tspan><tspan x="0" y="49">book </tspan><tspan x="0" y="76">page</tspan></text>
    <g id="Rectangle_39" data-name="Rectangle 39" transform="translate(1244 844)" fill="#fff" stroke="#707070" stroke-width="1">
      <rect width="382" height="577" stroke="none"/>
      <rect x="0.5" y="0.5" width="381" height="576" fill="none"/>
    </g>
    <g id="Rectangle_40" data-name="Rectangle 40" transform="translate(1244 844)" fill="#fff" stroke="#707070" stroke-width="1">
      <rect width="390" height="646" stroke="none"/>
      <rect x="0.5" y="0.5" width="389" height="645" fill="none"/>
    </g>
    <g id="Rectangle_41" data-name="Rectangle 41" transform="translate(1244 844)" fill="#fff" stroke="#707070" stroke-width="1">
      <rect width="382" height="278" stroke="none"/>
      <rect x="0.5" y="0.5" width="381" height="277" fill="none"/>
    </g>
    <text id="IMG-6" data-name="IMG" transform="translate(1304 922)" fill="#707070" font-size="20" font-family="SegoeUI, Segoe UI"><tspan x="0" y="22">IMG</tspan></text>
    <text id="title-6" data-name="title" transform="translate(1304 1160)" fill="#707070" font-size="20" font-family="SegoeUI, Segoe UI"><tspan x="0" y="22">title</tspan></text>
    <text id="des-6" data-name="des" transform="translate(1304 1239)" fill="#707070" font-size="20" font-family="SegoeUI, Segoe UI"><tspan x="0" y="22">des</tspan></text>
    <text id="author-6" data-name="author" transform="translate(1310 1214)" fill="#707070" font-size="20" font-family="SegoeUI, Segoe UI"><tspan x="0" y="22">author</tspan></text>
    <text id="genre-6" data-name="genre" transform="translate(1304 1285)" fill="#707070" font-size="20" font-family="SegoeUI, Segoe UI"><tspan x="0" y="22">genre</tspan></text>
    <text id="quantity-6" data-name="quantity" transform="translate(1282 1331)" fill="#707070" font-size="20" font-family="SegoeUI, Segoe UI"><tspan x="0" y="22">quantity</tspan></text>
    <g id="Rectangle_43" data-name="Rectangle 43" transform="translate(1256 1408)" fill="#fff" stroke="#707070" stroke-width="1">
      <rect width="133" height="70" stroke="none"/>
      <rect x="0.5" y="0.5" width="132" height="69" fill="none"/>
    </g>
    <text id="open_book_page-6" data-name="open book page" transform="translate(1304 1400)" fill="#707070" font-size="20" font-family="SegoeUI, Segoe UI"><tspan x="0" y="22">open </tspan><tspan x="0" y="49">book </tspan><tspan x="0" y="76">page</tspan></text>
    <g id="Rectangle_32" data-name="Rectangle 32" transform="translate(603 1421)" fill="#fff" stroke="#707070" stroke-width="1">
      <rect width="190" height="60" stroke="none"/>
      <rect x="0.5" y="0.5" width="189" height="59" fill="none"/>
    </g>
    <text id="borrow-4" data-name="borrow" transform="translate(617 1443)" fill="#707070" font-size="20" font-family="SegoeUI, Segoe UI"><tspan x="0" y="22">borrow</tspan></text>
    <g id="Rectangle_37" data-name="Rectangle 37" transform="translate(1017 1421)" fill="#fff" stroke="#707070" stroke-width="1">
      <rect width="190" height="60" stroke="none"/>
      <rect x="0.5" y="0.5" width="189" height="59" fill="none"/>
    </g>
    <text id="borrow-5" data-name="borrow" transform="translate(1031 1443)" fill="#707070" font-size="20" font-family="SegoeUI, Segoe UI"><tspan x="0" y="22">borrow</tspan></text>
    <g id="Rectangle_42" data-name="Rectangle 42" transform="translate(1431 1421)" fill="#fff" stroke="#707070" stroke-width="1">
      <rect width="190" height="60" stroke="none"/>
      <rect x="0.5" y="0.5" width="189" height="59" fill="none"/>
    </g>
    <text id="borrow-6" data-name="borrow" transform="translate(1445 1443)" fill="#707070" font-size="20" font-family="SegoeUI, Segoe UI"><tspan x="0" y="22">borrow</tspan></text>
    <g id="Rectangle_44" data-name="Rectangle 44" transform="translate(0 1598)" fill="#fff" stroke="#707070" stroke-width="1">
      <rect width="1920" height="332" stroke="none"/>
      <rect x="0.5" y="0.5" width="1919" height="331" fill="none"/>
    </g>
    <text id="footer_" data-name="footer
" transform="translate(622 1712)" fill="#707070" font-size="20" font-family="SegoeUI, Segoe UI"><tspan x="0" y="22">footer</tspan><tspan x="0" y="49"></tspan></text>
    <g id="Rectangle_45" data-name="Rectangle 45" transform="translate(28 166)" fill="#fff" stroke="#707070" stroke-width="1">
      <rect width="339" height="40" stroke="none"/>
      <rect x="0.5" y="0.5" width="338" height="39" fill="none"/>
    </g>
    <text id="search_book_" data-name="search book
" transform="translate(47 166)" fill="#707070" font-size="20" font-family="SegoeUI, Segoe UI"><tspan x="0" y="22">search book</tspan><tspan x="0" y="49"></tspan></text>
    <g id="Rectangle_46" data-name="Rectangle 46" transform="translate(47 258)" fill="#fff" stroke="#707070" stroke-width="1">
      <rect width="320" height="805" stroke="none"/>
      <rect x="0.5" y="0.5" width="319" height="804" fill="none"/>
    </g>
    <text id="filters_z" data-name="filters
z" transform="translate(109 329)" fill="#707070" font-size="20" font-family="SegoeUI, Segoe UI"><tspan x="0" y="22">filters</tspan><tspan x="0" y="49">z</tspan></text>
  </g>
</svg>
